<svg xmlns="http://www.w3.org/2000/svg" width="400" height="388.854" viewBox="0 0 400 NaN" fill-rule="evenodd"><path d="M268.872 98.432c-.535.178-2.068.341-3.405.362s-2.432.189-2.432.372-1.615.455-3.59.604-3.68.412-3.794.583-.992.413-1.956.536-2.188.342-2.723.488-1.542.354-2.238.46-1.264.333-1.264.504-.86.428-1.91.572c-1.39.192-1.96.457-2.096.981-.118.452-.817.891-1.885 1.184-.934.257-2.25.708-2.924 1.002s-1.496.535-1.825.535-.696.155-.813.346-.658.457-1.2.593c-3.128.786-12.11 5.355-19.208 9.772-16.008 9.962-30.45 26.209-37.518 42.207l-1.776 3.967c-.456 1.005-.83 2.089-.83 2.409s-.155.678-.345.795-.464.85-.6 1.628-.41 1.698-.6 2.047-.5 1.333-.738 2.189l-.666 2.489c-.225.833-.154.905.668.677 3.372-.935 16.068-1.956 20.83-1.675 5.765.34 11.955.965 14.526 1.466 7.897 1.538 15.777 3.641 18.872 5.037.428.193 1.654.688 2.724 1.101 3.783 1.459 13.35 6.563 17.287 9.222l4.852 3.278c4 2.704 11.836 10.015 16.133 15.056 16.783 19.687 24.872 45.653 21.854 70.158-.765 6.214-1.707 11.736-2.115 12.395-.8 1.297 2.322 2.273 3.856 1.205.214-.149 2.315-.395 4.67-.547s4.455-.418 4.67-.59 1.66-.439 3.213-.591 2.92-.435 3.038-.627.82-.35 1.555-.35 1.34-.155 1.34-.344.96-.464 2.134-.611 2.222-.409 2.33-.583.982-.435 1.942-.579 1.85-.427 1.973-.629.654-.366 1.177-.366.95-.16.95-.355.7-.474 1.556-.618 1.557-.423 1.557-.618.36-.355.8-.355 1.534-.325 2.432-.723l2.897-1.262c.695-.297 1.265-.672 1.265-.834s.287-.294.638-.294c.735 0 4.16-1.607 4.355-2.043.07-.16.378-.291.68-.291s.55-.162.55-.359.525-.473 1.168-.614 1.167-.399 1.167-.573.397-.415.883-.537 1.243-.558 1.684-.968 1.18-.866 1.646-1.014.845-.412.845-.589.394-.422.876-.547 1.384-.669 2.006-1.21 1.278-.982 1.46-.982.647-.307 1.037-.681c1.084-1.042 3.627-2.998 4.112-3.163.238-.081.904-.65 1.48-1.265s1.164-1.117 1.305-1.117c.265 0 2.074-1.668 5.008-4.619l2.133-2.14 1.506-1.527c.584-.599 1.544-1.547 2.133-2.108s1.07-1.189 1.07-1.396.394-.756.875-1.218c1.067-1.024 3.405-3.978 3.405-4.301 0-.129.438-.707.973-1.284s.972-1.255.972-1.507.132-.516.292-.588c.387-.172 2.473-3.317 3.2-4.839.32-.664.78-1.452 1.023-1.751s.57-.981.733-1.516.415-1.06.562-1.167c.468-.34 2.74-5.287 2.74-5.965 0-.357.175-.65.39-.65s.39-.243.39-.539.26-1.041.58-1.654.583-1.508.584-1.99.157-.875.347-.875.463-.784.606-1.742.426-1.844.628-1.969.367-.619.367-1.098.174-1.046.386-1.259.5-1.473.64-2.802.386-2.414.55-2.414.4-1.533.545-3.405.415-3.709.62-4.08c.46-.837.5-19.239.042-19.522-.182-.112-.444-1.801-.582-3.753s-.384-3.754-.546-4.002-.516-1.591-.79-2.982c-.84-4.276-.945-4.669-1.25-4.669-.162 0-.413-.735-.556-1.634s-.405-1.818-.58-2.043-.44-.934-.588-1.576c-.374-1.614-1.136-3.307-1.49-3.307-.162 0-.294-.272-.294-.605 0-.724-2.187-5.862-2.723-6.4-.27-.271-1.983-3.427-2.69-4.96-.322-.696-.724-1.265-.893-1.265s-.308-.262-.308-.583-.175-.584-.39-.584-.39-.227-.39-.505c0-.545-.847-1.781-2.238-3.265-.48-.514-.875-1.075-.875-1.247s-.307-.675-.68-1.12c-.667-.791-1.647-2.011-3.6-4.479-2.148-2.715-13.43-13.52-15.083-14.445-.37-.207-1.11-.781-1.643-1.276s-1.11-.9-1.283-.9-.524-.179-.782-.397c-2-1.688-2.84-2.326-3.07-2.327-.145 0-.498-.219-.784-.487s-1.174-.82-1.973-1.228-1.453-.89-1.453-1.07-.242-.328-.536-.328-.74-.245-.99-.545-.925-.665-1.503-.81-1.14-.389-1.25-.544c-.247-.35-7.47-3.942-7.92-3.94-.18.002-.794-.326-1.362-.727s-1.602-.853-2.297-1.004-1.265-.435-1.265-.632-.394-.359-.875-.361-1.314-.225-1.85-.498-2.023-.818-3.307-1.213-2.615-.857-2.958-1.026-1.438-.43-2.432-.579-1.81-.408-1.81-.574-.57-.403-1.264-.525c-3.456-.61-6.363-1.251-6.716-1.481-.216-.142-1.88-.383-3.696-.536s-3.48-.415-3.693-.582c-.963-.753-26.574-1.448-28.6-.777m-44.754 41.834c.645.619 1.174 1.355 1.174 1.636s.175.51.39.51c.557 0 .48 3.737-.097 4.772-2.192 3.921-6.36 4.656-9.475 1.672l-1.803-1.728.152-2.689c.29-5.138 6.054-7.628 9.66-4.173m54.344 18.284c2.244 1.12 3.006 2.338 3.18 5.087l.16 2.522-1.745 1.745c-4.073 4.073-10.307 1.337-9.944-4.363.28-4.387 4.5-6.91 8.348-4.991m50.135 2.537c4.142 3.892 2.112 10.081-3.422 10.433-3.894.248-6.098-1.835-6.098-5.761 0-2.556.272-3.165 2.06-4.612 2.055-1.664 5.72-1.693 7.46-.06m-37.294 27.035c2.66 1.328 5.343 7.598 3.25 7.598-.214 0-.4.23-.4.511 0 .628-2.008 2.602-2.647 2.602-.256 0-.465.175-.465.389 0 1.424-4.355.352-6.245-1.538s-2.962-6.244-1.538-6.244c.214 0 .4-.21.4-.465 0-.64 1.973-2.648 2.602-2.648.28 0 .5-.175.5-.389 0-.595 3.235-.463 4.533.184m56.084 28.118c2.28 1.459 3.197 3.046 3.197 5.536 0 1.078-.175 1.959-.39 1.959s-.4.23-.4.511c0 4.002-8.69 3.792-10.7-.259-1.304-2.614.514-7.645 2.764-7.645.304 0 .553-.175.553-.389 0-.667 3.83-.446 4.975.287m-32.212 10.219c0 .214.21.389.465.389.64 0 2.648 1.974 2.648 2.602 0 .281.175.511.39.511s.39.963.39 2.14-.175 2.14-.39 2.14-.39.23-.39.511c0 1.257-3.3 3.38-5.253 3.38s-5.253-2.123-5.253-3.38c0-.281-.175-.511-.39-.511s-.39-.931-.39-2.07c0-2.169 1.977-5.323 3.338-5.323.304 0 .553-.175.553-.389s.963-.389 2.14-.389 2.14.175 2.14.389" fill="#ed0a0f"/><path d="M176.86 233.361c-1.093.573-8.02 3.236-10.907 4.192-6.2 2.059-13.45 3.697-21.595 4.887-13.525 1.976-30.455 1.219-43.774-1.957-3.8-.905-5.203-.882-4.95.083.098.376-.001.901-.22 1.168s-.523 1.318-.674 2.337-.417 1.94-.6 2.047-.435 1.33-.584 2.719-.403 2.525-.566 2.525-.403.919-.535 2.043-.4 3.093-.6 4.377c-.474 3.078-.486 19.876-.016 23.346l.613 4.572c.134 1.017.397 1.849.584 1.849s.343.569.348 1.264.192 1.965.414 2.821l.8 3.308c.223.963.562 1.917.754 2.12s.348.665.348 1.026.26 1.157.58 1.77.582 1.509.584 1.99.177.876.39.876.39.261.39.581c0 .811 1.287 3.699 1.65 3.699.163 0 .297.288.297.64 0 .792 2.708 6.51 3.167 6.688.184.071.335.363.335.649s.13.577.292.648.73.973 1.264 2.004 1.258 2.182 1.606 2.559.754 1.065.902 1.531.432.845.63.845.363.196.363.435.482 1.007 1.07 1.706a69.23 69.23 0 0 1 1.913 2.386 46.79 46.79 0 0 0 1.69 2.088 182.4 182.4 0 0 1 2.271 2.685c2.33 2.808 10.88 10.934 11.504 10.934.118 0 .835.602 1.594 1.338s1.724 1.449 2.147 1.583.768.407.768.607.248.363.552.363.61.131.68.291c.196.443 2.57 2.043 3.032 2.043.222 0 .405.164.405.363s.38.484.845.631 1.206.604 1.646 1.014 1.198.846 1.684.968.883.378.883.568.174.347.386.347c.63 0 3.505 1.328 3.505 1.618 0 .146.525.381 1.167.522s1.168.41 1.168.597.613.456 1.362.596 1.36.411 1.36.602.265.345.59.345.893.167 1.265.371c1.073.587 3.312 1.491 4.372 1.763.535.138 1.323.405 1.75.595 1.482.657 4.505 1.552 5.244 1.552.408 0 .842.162.965.361s1.228.484 2.455.632 2.406.403 2.62.565c.473.358 2.377.688 7.004 1.211 1.926.218 4.115.57 4.864.781 3 .848 26.15-.109 29.338-1.214.62-.215 1.617-.391 2.214-.391s1.184-.158 1.304-.351 1.267-.472 2.552-.622 2.335-.406 2.335-.571.868-.416 1.93-.557 2.034-.426 2.163-.634.66-.378 1.183-.378.95-.175.95-.389.394-.39.875-.391 1.345-.248 1.92-.547a10.83 10.83 0 0 1 2.232-.806c.654-.144 1.29-.423 1.41-.62s.562-.36.978-.36.755-.175.755-.389.22-.395.486-.402 1.187-.351 2.043-.765 1.775-.758 2.043-.765.486-.188.486-.402.263-.389.584-.389.584-.162.584-.359.525-.473 1.167-.614 1.167-.399 1.167-.573.398-.415.883-.537 1.244-.557 1.684-.968 1.18-.866 1.646-1.014.846-.431.846-.631.236-.363.525-.363 1.25-.525 2.137-1.167 1.685-1.167 1.776-1.167c.21 0 1.947-1.43 3.43-2.821.628-.589 1.294-1.07 1.48-1.07.937 0 13.23-12.307 15.164-15.182.32-.477.765-1.065.987-1.306s1.01-1.314 1.75-2.384 1.48-2.004 1.64-2.075.29-.378.29-.681.164-.551.363-.551.486-.386.635-.858.512-1.097.805-1.389.532-.783.532-1.089.16-.555.358-.555.474-.526.615-1.168.39-1.167.555-1.167c.39 0 2.752-4.511 2.752-5.259 0-.318.175-.578.39-.578s.39-.35.39-.778.168-.778.372-.778.486-.613.627-1.362.392-1.362.558-1.362.42-.634.567-1.41.427-1.738.627-2.14l.702-1.424c.187-.381.46-1.301.606-2.043s.455-1.731.685-2.198c.952-1.932.502-2.067-6.97-2.091-8.973-.029-18.09-.776-23.455-1.921-8.485-1.81-18.412-4.621-21.985-6.227-.428-.192-2.116-.892-3.752-1.556-7.868-3.193-18.637-9.613-26.014-15.509-6.757-5.4-12.135-11.079-19.77-20.874-.89-1.141-4.955-7.99-6.426-10.826l-1.696-3.268-1.085.568m.637 27.826c3.777 1.971 4.68 7.012 1.777 9.915-3.79 3.789-10.402 1.01-10.402-4.37 0-4.406 4.843-7.519 8.625-5.545m-38.334 25.379c6.166 3.076 4.284 11.294-2.587 11.294-3.953 0-6.226-2.06-6.226-5.642 0-2.133 2.057-5.448 3.38-5.448.28 0 .51-.175.51-.389 0-.597 3.627-.461 4.922.185m53.304 30.349c3.49 1.741 4.424 7.205 1.696 9.933-2.754 2.754-8.174 1.83-9.932-1.693-.646-1.295-.782-4.922-.184-4.922.214 0 .39-.209.39-.465 0-.639 1.974-2.647 2.602-2.647.28 0 .51-.175.51-.389 0-.597 3.625-.462 4.918.183" fill="#0c7c2c"/><path d="M241.7 104.567c-.92.318-1.59.664-1.485.768.262.262 2.903-.639 3.178-1.083.122-.199.17-.339.102-.312s-.874.309-1.795.627m-3.383 1.158c-.428.103-.953.365-1.167.582-.487.494 1.38-.005 1.926-.514.203-.19.3-.325.194-.3l-.953.232m-3.502 1.487c-.978.471-1.01.524-.195.328.535-.129 1.14-.39 1.343-.58.504-.471.227-.41-1.148.252m-19.066 9.561c-4.084 2.758-3.94 3.05.183.37 2.913-1.893 2.996-1.957 2.54-1.951-.214.002-1.44.714-2.723 1.581m-5.917 4.022c-1.306.951-2.498 1.927-2.647 2.168-.253.409 2.235-1.316 4.478-3.104 1.81-1.443.56-.804-1.83.936m-5.173 4.144l-1.75 1.59 1.65-1.231c1.452-1.084 2.332-1.954 1.973-1.951-.066.001-.908.717-1.87 1.592m-7.217 6.689l-5.04 5.142 5.046-4.863 5.22-4.961c.097-.054.094-.179-.006-.279s-2.45 2.133-5.22 4.961m-6.868 7.38c-1.753 2.071-4.57 5.84-5.16 6.906-.573 1.035.36-.068 2.633-3.112l3.403-4.378c.673-.802 1.14-1.459 1.038-1.459s-.963.919-1.913 2.043m-7.03 9.727c-1.264 1.92-5.092 8.946-4.186 7.685.23-.321 1.342-2.159 2.47-4.085l2.757-4.572c.39-.589.616-1.07.505-1.07s-.807.919-1.547 2.042m-5.296 9.485c-.257.563-.378 1.114-.27 1.223s.383-.288.61-.883c.534-1.404.266-1.671-.34-.34m-1.205 2.621l-.78 1.999c-.66 1.695-.08 1.05.755-.838.44-.996.717-1.896.613-1.999s-.368.273-.588.838m-1.774 4.334l-.373 1.188c-.104.332-.038.509.148.394s.423-.649.526-1.187c.203-1.064-.007-1.338-.3-.395m-.96 2.629c0 .055-.172.7-.382 1.433s-.233 1.17-.05.97c.397-.435.922-2.503.634-2.503-.11 0-.202.045-.202.1m-1.122 3.468a7.2 7.2 0 0 1-.269 1.362c-.212.675-.2.676.22.019.244-.381.365-.994.27-1.362-.16-.602-.18-.604-.22-.019m-.974 3.728l-.453 2.626a27.13 27.13 0 0 1-.574 2.724c-.698 2.441-1.643 14.425-1.412 17.899.535 8.049 1.027 11.565 2.476 17.704 2.362 10.008 9.077 25.083 13.76 30.889l3.706 4.714c10.245 13.065 26.704 25.456 42.125 31.714l3.752 1.556c4.674 2.1 19.918 6.143 25.68 6.811 1.07.124 3.015.408 4.322.631 5.286.903 22.627 1.014 22.633.144.004-.428.297-2.179.653-3.891.99-4.764 2.13-14.754 2.146-18.793.067-18.947-7.092-40.245-18.705-55.645-5.438-7.211-14.368-16.088-20.038-19.92l-4.852-3.278c-3.937-2.659-13.504-7.763-17.287-9.222-1.07-.413-2.296-.908-2.724-1.101-3.095-1.396-10.975-3.499-18.872-5.037-2.57-.501-8.76-1.126-14.526-1.466-4.743-.28-17.46.74-20.805 1.669-.81.225-.87.15-.64-.775.14-.563.164-1.023.05-1.023s-.3.481-.418 1.07m22.18 29.114c5.808 6.034-2.358 14.183-8.4 8.381-2.253-2.164-2.03-6.205.466-8.477 1.973-1.796 6.162-1.745 7.934.096m54.46 34.656c2.232 2.341 2.73 4.614 1.54 7.004-2.782 5.576-11.5 3.606-11.5-2.599 0-4.97 6.618-7.9 9.95-4.405m-118.395 53.448c0 1.177.073 1.658.162 1.07a8.61 8.61 0 0 0 0-2.14c-.09-.589-.162-.107-.162 1.07m12.062 0c0 1.177.073 1.658.162 1.07a8.61 8.61 0 0 0 0-2.14c-.09-.589-.162-.107-.162 1.07" fill="#694a1f"/><path d="M145.914 69.146c-5.773 2.111-4.093 10.931 2.16 11.33l2.522.16 1.745-1.745c4.63-4.631-.234-12.008-6.426-9.745M76.332 98.322c-2.976 1.189-4.232 6.903-2.033 9.244 3.948 4.202 10.097 2.145 10.457-3.498l.16-2.523L83.17 99.8c-1.742-1.742-4.62-2.364-6.84-1.478m95.045 7.671c-2.955 3.084-2.177 7.46 1.683 9.463 1.132.587 4.76.67 4.76.108 0-.214.23-.389.51-.389 2.872 0 3.955-6.878 1.474-9.359-1.203-1.202-1.567-1.336-4.012-1.474l-2.69-.152-1.728 1.803m-60.482 16.964c0 .214-.23.389-.51.389-.628 0-2.602 2.009-2.602 2.648 0 .256-.175.465-.39.465s-.39.963-.39 2.14.175 2.14.39 2.14.39.23.39.511c0 .628 2.01 2.602 2.648 2.602.256 0 .465.175.465.389s.963.389 2.14.389 2.14-.175 2.14-.389.21-.389.465-.389c.64 0 2.648-1.974 2.648-2.602 0-.281.175-.511.39-.511s.39-.963.39-2.14-.175-2.14-.39-2.14-.39-.23-.39-.511c0-.628-2.01-2.602-2.648-2.602-.256 0-.465-.175-.465-.389s-.963-.389-2.14-.389-2.14.175-2.14.389m106.618 16.222c-1.9.812-2.9 2.536-3.055 5.26l-.152 2.689 1.803 1.728c3.115 2.984 7.283 2.249 9.475-1.672.578-1.035.654-4.772.097-4.772-.214 0-.39-.229-.39-.51 0-1.927-5.3-3.782-7.78-2.723M50.36 149.165c-6.712 3.742-1.72 14.386 5.143 10.963 4.368-2.179 4.37-8.738.003-10.916-1.34-.669-3.986-.693-5.146-.047m85.05 4.806c-2.413.882-5.178 7.897-3.113 7.897.214 0 .39.23.39.511 0 1.381 2.297 2.757 4.876 2.921l2.528.161 1.745-1.745c4.63-4.631-.234-12.008-6.425-9.745m137.733 4.61c-4.172 2.215-4.033 9.613.204 10.834 2.703.779 4.922.279 6.712-1.511l1.745-1.745-.16-2.522c-.286-4.488-4.666-7.092-8.5-5.056m47.995 2.566c-1.788 1.447-2.06 2.056-2.06 4.612 0 6.396 8.23 8.316 11.09 2.586 2.777-5.566-4.186-11.118-9.03-7.198M88.47 184.579c-2.56 2.562-2.544 5.73.046 8.319l1.745 1.746 2.548-.162c3.693-.235 5.33-1.871 5.564-5.564l.162-2.548-1.746-1.745c-2.59-2.59-5.757-2.607-8.32-.046m198.3 3.359c0 .214-.23.389-.5.389-.63 0-2.602 2.008-2.602 2.648 0 .255-.176.465-.4.465-1.424 0-.35 4.354 1.538 6.244s6.245 2.962 6.245 1.538c0-.214.21-.389.465-.389.64 0 2.647-1.974 2.647-2.602 0-.281.176-.511.4-.511 1.2 0 .27-4.256-1.342-6.139-1.44-1.683-6.44-2.958-6.44-1.643m-98.832 15.04c-3.527 1.413-4.645 6.914-1.935 9.517 6.042 5.802 14.208-2.347 8.4-8.381-1.13-1.173-4.774-1.814-6.465-1.136m154.474 12.975c0 .214-.25.389-.553.389-2.25 0-4.068 5.031-2.764 7.645 2.02 4.051 10.7 4.261 10.7.259 0-.281.176-.511.4-.511 1.206 0 .172-4.896-1.357-6.425s-6.426-2.563-6.426-1.357m-217.91 3.328c-2.112 1.122-2.862 2.373-3.033 5.056l-.16 2.522 1.746 1.746c4.072 4.072 10.307 1.337 9.944-4.363-.28-4.391-4.703-6.974-8.496-4.961m186.392 7.178c0 .214-.25.389-.553.389-1.36 0-3.338 3.154-3.338 5.323 0 1.139.175 2.07.39 2.07s.39.23.39.511c0 1.257 3.3 3.38 5.253 3.38s5.253-2.123 5.253-3.38c0-.281.175-.511.39-.511s.39-.963.39-2.14-.175-2.14-.39-2.14-.39-.23-.39-.511c0-.628-2.01-2.602-2.648-2.602-.256 0-.465-.175-.465-.389s-.963-.389-2.14-.389-2.14.175-2.14.389m-68.46 11.157c-2.835 1.221-4.34 5.38-2.95 8.161 2.795 5.603 11.49 3.597 11.49-2.651 0-3.915-4.9-7.077-8.538-5.51m-69.672 23.473c0 .215-.23.39-.51.39-.628 0-2.602 2.008-2.602 2.647 0 .256-.175.465-.39.465s-.39.963-.39 2.141.175 2.14.39 2.14.39.249.39.553c0 2.229 5.34 4.155 7.874 2.84 5.666-2.939 3.725-11.565-2.603-11.565-1.187 0-2.158.175-2.158.389m-38.7 25.412c-2.394 1.454-3.104 2.629-3.26 5.393l-.15 2.672 1.744 1.744c1.695 1.695 1.813 1.744 4.18 1.744s2.486-.049 4.18-1.744l1.744-1.744-.15-2.657c-.254-4.485-4.86-7.49-8.29-5.408m53.14 30.429c-6.128 3.369-3.692 11.97 3.228 11.397 3.365-.279 4.994-2.02 5.22-5.578l.164-2.568-1.99-1.919c-2.164-2.085-4.424-2.54-6.62-1.332" fill="#fcfcfc"/><path d="M196.678 132.004l-1.93 2.043 2.043-1.931 2.043-2.043c0-.29-.36.033-2.155 1.931m-25.86 44.224c-.32.181-1.438.452-2.482.603s-2.27.418-2.724.593-1.963.619-3.354.987c-27.59 7.291-52.9 29.742-63.6 56.414-.773 1.926-1.56 3.779-1.746 4.119-.6 1.105 10.778 3.342 21.57 4.236 15.305 1.268 33.166-.85 47.47-5.631 10.117-3.381 12.788-4.826 11.544-6.245-.806-.92-4.133-10.672-5.237-15.351-1.45-6.139-1.94-9.655-2.476-17.704-.232-3.493.718-15.492 1.418-17.899.574-1.976.868-4.475.525-4.463-.18.007-.59.16-.9.341m-40.993 43.023c4.3 2.15 4.27 9.618-.057 10.864-2.704.779-4.922.28-6.712-1.51l-1.746-1.746.16-2.522c.286-4.484 4.463-7.027 8.354-5.086" fill="#044364"/><path d="M115.953 16.754c-.535.174-2.723.514-4.864.756l-7.785 1.179c-.217.175-1.486.441-2.82.592s-2.43.407-2.43.569-.96.414-2.133.56-2.235.43-2.358.629-.65.362-1.174.362-.95.155-.95.345-.784.462-1.742.606-1.844.426-1.97.628-.56.366-.968.366-1.317.248-2.02.552l-2.7 1.167c-.78.339-1.597.616-1.812.616-.457 0-4.457 2.001-4.744 2.374-.107.138-.763.375-1.46.526s-1.264.422-1.264.602-.526.443-1.168.584-1.167.417-1.167.614-.263.358-.584.358-.583.175-.583.389-.22.391-.487.392-.924.237-1.46.525l-2.626 1.398c-.9.482-1.654 1.034-1.654 1.227s-.263.349-.584.349-.583.172-.583.382-.438.492-.973.626-.973.36-.973.503-.613.588-1.362.991-1.362.881-1.362 1.062-.254.328-.564.328-.704.223-.875.495-.837.826-1.48 1.229-1.307.968-1.478 1.255-.504.522-.74.522-1.023.613-1.75 1.362-1.487 1.362-1.69 1.362c-.55 0-12.394 11.99-14.187 14.362-.856 1.132-2.038 2.585-2.627 3.228s-1.07 1.334-1.07 1.536-.413.752-.918 1.224-1.043 1.25-1.194 1.732-.418.875-.592.875-.42.307-.546.681c-.233.693-1.05 2.079-1.436 2.432-.61.561-3.488 5.518-3.705 6.385-.14.555-.41 1.008-.6 1.008s-.347.263-.347.584-.175.584-.39.584-.39.221-.39.492-.35 1.145-.78 1.944-.778 1.715-.778 2.037-.13.586-.292.588c-.317.003-1.256 1.845-1.277 2.506-.008.225-.352 1.11-.765 1.966s-.758 1.827-.765 2.159-.164.77-.348.973-.647 1.333-1.028 2.51l-1.222 3.607c-.29.807-.53 1.891-.53 2.409s-.157 1.039-.35 1.158-.477 1.305-.632 2.634-.413 2.687-.576 3.016c-.635 1.289-1.237 4.653-1.448 8.09-.12 1.98-.367 3.599-.545 3.599-.414 0-.393 21.124.02 21.394.17.111.43 2.04.578 4.287s.435 4.252.638 4.455.37.938.37 1.631.152 1.355.338 1.47.462 1.305.613 2.646.416 2.613.586 2.829.43 1.221.576 2.232.432 1.942.633 2.066.367.561.367.969c0 .67.7 2.575 1.604 4.362.188.372.34.869.34 1.105s.526 1.563 1.168 2.95 1.167 2.773 1.167 3.079.175.556.39.556.39.205.39.456c0 .537 2.35 5.487 2.74 5.77.148.107.402.624.566 1.149s.538 1.194.83 1.487.532.783.532 1.088.132.558.292.561.627.703 1.036 1.556.87 1.552 1.027 1.552.395.438.53.973.416.973.626.973.38.187.38.416.22.646.487.926.75.901 1.07 1.381.802 1.103 1.07 1.382.486.654.486.832.438.796.973 1.373.973 1.156.973 1.287c0 .769 15.214 16.527 15.957 16.527.197 0 .998.593 1.78 1.317 1.92 1.78 2.506 2.253 3.865 3.122.638.408 1.3.977 1.472 1.264s.5.523.708.523.642.219.94.486c1.288 1.155 1.728 1.459 2.1 1.459.223 0 .405.155.405.344s.307.45.68.579 1.156.544 1.736.921c3.03 1.97 5.93 3.604 6.396 3.604.29 0 .526.175.526.389s.262.389.583.389.584.161.584.358.525.474 1.167.615 1.168.403 1.168.583.57.451 1.264.602 1.352.398 1.46.55c.285.402 4.313 2.246 5.63 2.576.62.156 1.578.518 2.128.805s1.392.522 1.874.523.875.178.875.392.35.389.778.389.78.159.78.353.875.473 1.945.62 2.033.411 2.142.586.94.441 1.85.591 1.887.463 2.175.697c.655.53.904.118 2.89-4.793 8.694-21.477 25.77-39.714 46.78-49.959 6.296-3.07 12.244-5.408 16.926-6.654 1.39-.37 2.967-.821 3.502-1.002s1.673-.437 2.53-.569 2.014-.413 2.572-.625c1.038-.392 1.07-.46 2.532-5.587.66-2.319 2.424-7.103 3.44-9.339 6.786-14.921 15.146-25.879 27.992-36.693 6.65-5.599 20.146-13.733 26.967-16.254 1.026-.379 2.04-.808 2.255-.955s2.052-.83 4.085-1.521c4.668-1.586 5.448-1.967 5.448-2.664 0-.592-1.073-4.133-1.563-5.157-.158-.33-.41-1.337-.563-2.238s-.422-1.639-.598-1.639-.44-.699-.583-1.554-.423-1.653-.618-1.774-.355-.559-.355-.975-.173-.755-.385-.755-.496-.7-.633-1.556-.402-1.557-.59-1.557-.34-.205-.34-.455c0-.496-2.325-5.453-2.706-5.77-.13-.107-.567-.983-.974-1.946s-.97-1.943-1.248-2.179-.418-.516-.31-.625-.07-.419-.396-.69-.593-.673-.593-.894-.406-.944-.904-1.606-1.017-1.511-1.155-1.885-.43-.681-.652-.681-.4-.236-.4-.524-.35-.928-.78-1.422-.778-1.037-.778-1.209-.394-.741-.875-1.265-1.052-1.189-1.268-1.477c-1.966-2.621-3.168-4.075-3.586-4.337-.273-.171-.5-.521-.502-.778-.01-.88-16.08-16.226-16.99-16.226-.282 0-.513-.141-.513-.314 0-.344-3.347-2.798-3.817-2.798-.16 0-.544-.351-.853-.779s-.682-.778-.83-.778c-.248 0-3.922-2.288-4.812-2.997-.214-.171-1.045-.657-1.848-1.08s-1.46-.885-1.46-1.028-.47-.376-1.046-.521-1.506-.589-2.067-.989-1.49-.844-2.066-.989-1.047-.418-1.047-.609-.208-.347-.463-.347-1.524-.509-2.82-1.13c-3.5-1.673-5.148-2.372-5.627-2.372-.235 0-.427-.175-.427-.389s-.33-.389-.734-.389-1.235-.262-1.848-.582-1.51-.582-2-.583-.876-.161-.876-.355-.875-.473-1.945-.62-1.946-.427-1.946-.621-.283-.352-.628-.352-1.528-.282-2.627-.625c-3.583-1.122-4.302-1.292-6.58-1.558-1.236-.144-2.34-.412-2.454-.596s-.887-.334-1.717-.334-1.596-.137-1.7-.304-.683-.346-1.287-.397a244.75 244.75 0 0 1-4.797-.526c-4.414-.518-25.072-.758-26.46-.307m36.433 53.817c2.56 2.562 2.544 5.73-.046 8.32l-1.745 1.745-2.522-.16c-3.553-.227-5.66-2.374-5.66-5.768 0-5.348 6.194-7.917 9.974-4.137M83.17 99.8l1.745 1.745-.16 2.523c-.506 7.934-11.4 7.627-11.4-.321 0-5.628 5.8-7.962 9.825-3.947m96.635 6.016c2.48 2.481 1.398 9.359-1.474 9.359-.28 0-.51.175-.51.389 0 .562-3.63.479-4.76-.108-3.86-2.003-4.638-6.379-1.683-9.463l1.728-1.803 2.69.152c2.445.138 2.81.272 4.012 1.474m-64.63 17.141c0 .214.21.389.465.389.64 0 2.648 1.974 2.648 2.602 0 .281.175.511.39.511s.39.963.39 2.14-.175 2.14-.39 2.14-.39.23-.39.511c0 .628-2.01 2.602-2.648 2.602-.256 0-.465.175-.465.389s-.963.389-2.14.389-2.14-.175-2.14-.389-.21-.389-.465-.389c-.64 0-2.648-1.974-2.648-2.602 0-.281-.175-.511-.39-.511s-.39-.963-.39-2.14.175-2.14.39-2.14.39-.209.39-.465c0-.639 1.974-2.648 2.602-2.648.28 0 .51-.175.51-.389s.963-.389 2.14-.389 2.14.175 2.14.389m-59.67 26.255c4.366 2.178 4.365 8.737-.003 10.916-5.81 2.899-11.316-5.147-6.69-9.775 1.74-1.739 4.537-2.216 6.692-1.141m86.375 6.184c2.562 2.562 2.544 5.73-.046 8.32l-1.745 1.745-2.528-.161c-2.58-.164-4.876-1.54-4.876-2.921 0-.281-.175-.511-.39-.511-.598 0-.462-3.627.184-4.922 1.885-3.777 6.424-4.525 9.4-1.55m-45.09 29.229l1.746 1.745-.162 2.548c-.235 3.693-1.87 5.329-5.564 5.564l-2.548.162-1.745-1.746c-1.696-1.696-1.746-1.814-1.746-4.182 0-5.52 6.1-8.01 10.02-4.091" fill="#0404b4"/></svg>